<svg width="141" height="57" viewBox="0 0 141 57" fill="none" xmlns="http://www.w3.org/2000/svg">
<path d="M4.96256 0.34668H2.35461V2.79948H4.96256V0.34668Z" fill="#066E43"/>
<path d="M8.91569 0.34668H6.30774V2.79948H8.91569V0.34668Z" fill="#066E43"/>
<path d="M53.3765 17.4756H50.7686V19.9284H53.3765V17.4756Z" fill="#066E43"/>
<path d="M57.3316 17.4756H54.7236V19.9284H57.3316V17.4756Z" fill="#066E43"/>
<path d="M67.0407 2.7998H64.4111V5.23101H67.0407V2.7998Z" fill="#066E43"/>
<path d="M76.1293 0.727539H73.5214V3.1607H76.1293V0.727539Z" fill="#066E43"/>
<path d="M80.106 0.727539H77.498V3.1607H80.106V0.727539Z" fill="#066E43"/>
<path d="M86.7496 6.83939V11.5133C86.7496 12.8879 86.2449 13.5851 85.2571 13.5851H83.7665H83.3856H82.0639C81.1586 13.5851 80.5911 13.5223 80.3397 13.4162C81.245 12.3793 81.7065 11.2167 81.7065 9.94811C81.7065 9.41788 81.6221 8.86998 81.4551 8.33975C80.8031 6.28757 79.0573 4.99733 76.8068 4.99733C74.5975 4.99733 72.832 6.28757 72.1584 8.33975C71.9895 8.86802 71.9051 9.41788 71.9051 9.94811C71.9051 11.2167 72.3686 12.3793 73.2719 13.4162C73.0402 13.5223 72.4726 13.5851 71.5477 13.5851H70.3674H69.633H66.917C67.1487 12.9292 67.2744 12.232 67.2744 11.4485V6.83939H64.3091V11.5545C64.3091 12.9076 63.8044 13.5851 62.8166 13.5851H60.9058H60.8802H57.2924C57.5241 12.9292 57.6282 12.232 57.6282 11.4485V6.83939H54.6628V11.5545C54.6628 12.9076 54.1797 13.5851 53.1899 13.5851H51.5482H51.2536H48.2647H47.9289H44.5413H44.2055H40.8179H40.4821H26.107H25.7712H21.9417H21.6059H17.7765H17.4406H13.6308H13.2754H12.1167C10.6871 13.5851 9.97029 12.8251 9.97029 11.4288V4.76953C6.22726 4.76953 4.35378 4.76953 4.35378 4.78917C1.57694 4.78917 0 6.81976 0 9.96972C0 12.8879 1.62015 15.0874 4.14365 15.0874C5.59491 15.0874 6.60431 14.6436 7.13062 13.8188C7.80421 15.5528 8.9825 16.4189 10.6655 16.4189H13.2754H13.6308H17.4406H17.7765H21.6059H21.9417H25.7712H26.107H40.4821H40.8179H44.2055H44.5413H47.9289H48.2647H51.2536H51.5482H60.8802H60.9058H69.633H70.3674H71.5477C73.5881 16.4189 75.3339 16.1656 76.8068 15.6373C78.2796 16.1656 80.0255 16.4189 82.0659 16.4189H83.3875H83.7685H85.8914C87.1109 16.4189 88.0791 15.9967 88.7723 15.1306C89.3811 14.3903 89.6973 13.4594 89.6973 12.3381V6.84136H86.7496V6.83939ZM6.94013 9.73602C6.94013 11.4701 6.18405 12.6346 4.94292 12.6346C3.76463 12.6346 2.92412 11.4092 2.92412 9.92848C2.92412 8.27887 3.80784 6.94544 5.00577 6.94544H6.94013V9.73602ZM77.8339 12.1672C77.4764 12.4206 77.1387 12.6327 76.8029 12.8015C76.467 12.6327 76.1293 12.4225 75.7935 12.1672C74.9726 11.5742 74.5739 10.771 74.5739 9.73406C74.5739 9.07814 74.7625 8.50864 75.1199 8.04321C75.5617 7.55815 76.1096 7.30286 76.8029 7.30286C78.2129 7.30286 79.0534 8.40259 79.0534 9.73406C79.0534 10.7729 78.6547 11.5761 77.8339 12.1672Z" fill="#066E43"/>
<path d="M89.5048 2.7998H86.8752V5.23101H89.5048V2.7998Z" fill="#066E43"/>
<path d="M85.5301 2.7998H82.9221V5.23101H85.5301V2.7998Z" fill="#066E43"/>
<path d="M8.92943 22.5283H6.3313V24.9674H8.92943V22.5283Z" fill="#066E43"/>
<path d="M4.994 22.5283H2.39587V24.9674H4.994V22.5283Z" fill="#066E43"/>
<path d="M27.8175 39.5527H25.1938V41.9879H27.8175V39.5527Z" fill="#066E43"/>
<path d="M23.8545 39.5527H21.2563V41.9879H23.8545V39.5527Z" fill="#066E43"/>
<path d="M6.96175 31.856C6.96175 33.5802 6.2096 34.7369 4.97436 34.7369C3.79804 34.7369 2.96145 33.5193 2.96145 32.0465C2.96145 30.4047 3.83928 29.0831 5.03524 29.0831H6.96175V31.856ZM25.0701 33.6234C25.0701 34.9883 24.5654 35.6815 23.5796 35.6815H22.305H13.0417H12.1207C10.695 35.6815 9.98209 34.9274 9.98209 33.5409V26.917C6.24888 26.917 4.38522 26.917 4.38522 26.9386C1.61428 26.9386 0.0412598 28.9574 0.0412598 32.0897C0.0412598 34.9883 1.65748 37.176 4.17313 37.176C5.62046 37.176 6.6279 36.7341 7.15027 35.9152C7.81993 37.6355 8.99626 38.4976 10.6714 38.4976H13.0398H22.3031H24.208C25.4216 38.4976 26.3858 38.0773 27.081 37.2192C27.6859 36.4827 28.0021 35.5558 28.0021 34.4423V28.979H25.0681V33.6234H25.0701Z" fill="#066E43"/>
<path d="M36.1794 29.3781C35.4057 29.1052 34.1056 28.9795 32.2596 28.9795V31.4362C35.9889 31.4362 37.5835 32.7402 37.5835 35.6859H29.9738V38.502H40.5175V35.6643C40.5194 32.4888 39.0328 30.3875 36.1794 29.3781Z" fill="#066E43"/>
<path d="M64.8334 32.5752C64.3503 33.0131 63.8908 33.3509 63.4725 33.5414C62.9894 32.9738 62.5476 32.5536 62.1725 32.2806C61.7974 32.0076 61.2907 31.7131 60.6643 31.4362C61.4812 31.0375 62.3198 30.8509 63.1583 30.8509C64.0185 30.8509 64.8963 31.0807 65.7996 31.5442C65.6072 31.8603 65.2733 32.1942 64.8334 32.5752ZM48.9638 35.6858H47.2651C46.1752 35.6858 45.4624 34.7805 45.4624 33.5846C45.4624 32.4711 46.0495 31.609 47.1611 31.609C48.2294 31.609 48.9638 32.4063 48.9638 33.6455V35.6858ZM86.7162 33.7927C86.7162 35.0535 86.2115 35.6858 85.2257 35.6858H83.364C83.5938 35.0535 83.7175 34.3387 83.7175 33.563V28.9794H80.7836V33.7927C80.7836 35.0535 80.2828 35.6858 79.2969 35.6858H77.4294C77.6591 35.0535 77.7828 34.3387 77.7828 33.563V28.9794H74.8273V33.6671C74.8273 34.2346 74.788 34.59 74.7016 34.7589C74.4719 35.3697 74.0103 35.6858 73.3407 35.6858H71.8325H70.6994H67.0526C66.3829 35.6858 65.8605 35.517 65.4795 35.1576C66.2356 34.698 67.031 33.9832 67.8911 32.9954C68.6688 32.0901 69.1912 31.3321 69.4209 30.7685C67.4296 29.2308 65.2714 28.4551 62.9423 28.4551C60.9942 28.4551 59.0441 29.0226 57.1392 30.1577V32.5752C57.9562 32.7225 58.8163 33.0779 59.6941 33.6238C60.4286 34.0873 60.9726 34.5292 61.2888 34.971C60.5111 35.4522 59.5901 35.6858 58.561 35.6858H56.497H53.8911H51.8998V33.7711C51.8998 30.9766 49.934 28.9578 47.2494 28.9578C44.4569 28.9578 42.4872 30.8725 42.4872 33.7103C42.4872 36.5048 44.5001 38.502 47.2494 38.502C48.2313 38.502 48.8185 38.4588 49.0522 38.3763C48.8185 39.1952 48.1489 39.6154 47.0177 39.6154H46.7663V41.9681H47.0825C49.934 41.9681 51.5247 40.8114 51.8624 38.502H53.893H56.499H58.6082C59.4683 38.502 60.3285 38.3547 61.2102 38.0817C62.0272 37.8048 62.6752 37.4494 63.1799 37.0291C64.1225 38.0169 65.2105 38.502 66.43 38.502H70.7033H71.8364H85.3376C86.3844 38.502 87.3289 38.121 88.1459 37.3885C89.1749 36.4616 89.6757 35.1792 89.6757 33.5414V28.9794H86.7202V33.7927H86.7162Z" fill="#066E43"/>
<path d="M98.8134 0.356445V42.5431H141V0.356445H98.8134ZM130.111 20.1772C132.402 23.1937 133.677 25.403 133.677 25.403C132.893 26.7737 132.016 28.2407 131.045 29.8019C131.045 29.8019 129.633 27.4375 127.114 24.1206C125.843 22.4494 122.589 18.724 122.54 18.671C122.542 18.7437 122.538 34.9451 122.548 36.473L122.54 36.471C122.54 36.4769 122.54 36.4848 122.54 36.4907H117.265C117.275 34.9628 117.271 18.7456 117.273 18.671C117.224 18.724 113.97 22.4513 112.699 24.1206C110.178 27.4375 108.768 29.8019 108.768 29.8019C107.798 28.2407 106.92 26.7737 106.136 25.403C106.136 25.403 107.411 23.1956 109.703 20.1772C110.714 18.8458 113.163 16.0768 113.774 15.3895C112.038 15.7076 110.42 16.1239 109.214 16.5226C108.051 16.9075 107.162 17.2885 106.578 17.5614C106.024 17.8207 105.728 17.9876 105.728 17.9876C106.091 16.5658 106.504 15.2795 106.971 14.1581C106.971 14.1581 107.248 13.9618 107.77 13.6554C108.314 13.3373 109.147 12.8974 110.233 12.4614C111.382 12.0019 112.821 11.5443 114.465 11.2046C114.418 11.1692 113.377 10.3326 112.969 10.0675C111.073 8.84406 110.329 9.23878 110.329 9.23878C111.272 8.55931 112.224 8.00943 113.167 7.61667C113.167 7.61667 113.314 7.53026 113.599 7.46349C113.901 7.39083 114.384 7.35156 115.015 7.47332C115.722 7.60882 117.754 8.56127 117.788 8.58091C117.79 8.54948 117.886 7.63828 117.919 7.31425C118.018 6.36769 118.226 6.4266 118.391 6.41089H121.419C121.586 6.42464 121.792 6.36769 121.89 7.31425C121.924 7.63828 122.018 8.54948 122.022 8.58091C122.057 8.56127 124.088 7.61078 124.795 7.47332C125.425 7.35156 125.908 7.39083 126.211 7.46349C126.495 7.53223 126.643 7.61667 126.643 7.61667C127.585 8.00943 128.538 8.55931 129.48 9.23878C129.48 9.23878 128.734 8.84406 126.841 10.0675C126.43 10.3326 125.392 11.1712 125.345 11.2046C126.988 11.5443 128.428 12.0019 129.577 12.4614C130.663 12.8974 131.493 13.3373 132.039 13.6554C132.562 13.9618 132.838 14.1581 132.838 14.1581C133.306 15.2795 133.718 16.5658 134.082 17.9876C134.082 17.9876 133.785 17.8207 133.231 17.5614C132.65 17.2885 131.76 16.9075 130.596 16.5226C129.39 16.122 127.774 15.7076 126.036 15.3895C126.652 16.0768 129.099 18.8438 130.111 20.1772Z" fill="#066E43"/>
<path d="M128.265 46.6342L131.717 50.4283H141V48.0363H135.437C135.191 48.4605 134.737 48.7472 134.211 48.7472C133.426 48.7472 132.789 48.111 132.789 47.3254C132.789 46.5399 133.426 45.9036 134.211 45.9036C134.751 45.9036 135.215 46.208 135.454 46.6499H141V45.3066H98.8134V46.6342H128.265Z" fill="#066E43"/>
<path d="M131.104 51.8166L127.652 48.0225H98.8134V50.0864H104.777C105.019 49.6446 105.482 49.3402 106.021 49.3402C106.806 49.3402 107.442 49.9765 107.442 50.762C107.442 51.5475 106.806 52.1838 106.021 52.1838C105.496 52.1838 105.043 51.8951 104.795 51.4729H98.8134V53.9414H107.495L111.641 50.0688H123.768C124.009 49.6269 124.473 49.3225 125.011 49.3225C125.796 49.3225 126.432 49.9588 126.432 50.7443C126.432 51.5298 125.796 52.1661 125.011 52.1661C124.486 52.1661 124.033 51.8774 123.785 51.4552H112.187L108.041 55.3279H98.8114V56.6691H141V51.8146H131.104V51.8166ZM138.178 55.7304C137.654 55.7304 137.2 55.4418 136.953 55.0195H114.724C114.479 55.4437 114.025 55.7304 113.499 55.7304C112.713 55.7304 112.077 55.0942 112.077 54.3086C112.077 53.5231 112.713 52.8868 113.499 52.8868C114.039 52.8868 114.502 53.1912 114.742 53.6331H136.933C137.175 53.1912 137.638 52.8868 138.176 52.8868C138.962 52.8868 139.598 53.5231 139.598 54.3086C139.598 55.0942 138.964 55.7304 138.178 55.7304Z" fill="#066E43"/>
</svg>
